<mxfile host="app.diagrams.net" modified="2023-01-11T06:31:47.482Z" agent="5.0 (Windows NT 10.0; Win64; x64) AppleWebKit/537.36 (KHTML, like Gecko) Chrome/108.0.0.0 Safari/537.36" version="20.8.0" etag="BGCi-H9a9tHQGMEteiOz" type="github">
  <diagram id="M9i9wwSmRlSEatbyu5ge" name="Page-1">
    <mxGraphModel dx="1434" dy="756" grid="1" gridSize="10" guides="1" tooltips="1" connect="1" arrows="1" fold="1" page="1" pageScale="1" pageWidth="850" pageHeight="1100" math="0" shadow="0">
      <root>
        <mxCell id="0" />
        <mxCell id="1" parent="0" />
        <mxCell id="ubJQ3kdG4rIF2yVWHW1Y-1" value="导入过程" style="rounded=0;whiteSpace=wrap;html=1;" vertex="1" parent="1">
          <mxGeometry x="10" y="10" width="120" height="60" as="geometry" />
        </mxCell>
        <mxCell id="ubJQ3kdG4rIF2yVWHW1Y-5" value="" style="edgeStyle=orthogonalEdgeStyle;rounded=0;orthogonalLoop=1;jettySize=auto;html=1;" edge="1" parent="1" source="ubJQ3kdG4rIF2yVWHW1Y-2" target="ubJQ3kdG4rIF2yVWHW1Y-4">
          <mxGeometry relative="1" as="geometry" />
        </mxCell>
        <mxCell id="ubJQ3kdG4rIF2yVWHW1Y-2" value="查询node（1906）" style="rounded=1;whiteSpace=wrap;html=1;" vertex="1" parent="1">
          <mxGeometry x="10" y="110" width="120" height="60" as="geometry" />
        </mxCell>
        <mxCell id="ubJQ3kdG4rIF2yVWHW1Y-4" value="文件数据（1906）" style="whiteSpace=wrap;html=1;rounded=1;" vertex="1" parent="1">
          <mxGeometry x="210" y="110" width="140" height="60" as="geometry" />
        </mxCell>
        <mxCell id="ubJQ3kdG4rIF2yVWHW1Y-6" value="阀门数据（602）" style="whiteSpace=wrap;html=1;rounded=1;" vertex="1" parent="1">
          <mxGeometry x="210" y="190" width="140" height="60" as="geometry" />
        </mxCell>
      </root>
    </mxGraphModel>
  </diagram>
</mxfile>
